REM DIRINDEX 1\2\5,1\2\6,1\2\7,1\2\8,1\3\9,1\3\10,1\3\11,1\4\12,1\4\13,1\4\14,1\4\15,1\4\16
REM DIRNAME folder01,folder02,folder03,folder04,folder05,folder06,folder07,folder08,folder09,folder10,folder11,folder12,folder13,folder14,folder15,folder16
TITLE ""
FILE "1200_sec05_1556_1563.mp3" MP3
  TRACK 01 AUDIO
    TITLE "0:"
    INDEX 01 00:00:00
  TRACK 02 AUDIO
    TITLE "12:cjc034_09970"
    INDEX 01 00:00:17
  TRACK 03 AUDIO
    TITLE "0:"
    INDEX 01 00:01:66
  TRACK 04 AUDIO
    TITLE "13:cjc034_09971"
    INDEX 01 00:02:22
  TRACK 05 AUDIO
    TITLE "0:"
    INDEX 01 00:03:45
  TRACK 06 AUDIO
    TITLE "14:cjc034_09972"
    INDEX 01 00:04:05
  TRACK 07 AUDIO
    TITLE "0:"
    INDEX 01 00:05:48
  TRACK 08 AUDIO
    TITLE "15:cjc034_09973"
    INDEX 01 00:06:08
  TRACK 09 AUDIO
    TITLE "0:"
    INDEX 01 00:11:52
  TRACK 10 AUDIO
    TITLE "12:cjc034_09974"
    INDEX 01 00:13:10
  TRACK 11 AUDIO
    TITLE "0:"
    INDEX 01 00:14:31
  TRACK 12 AUDIO
    TITLE "13:cjc034_09975"
    INDEX 01 00:14:62
  TRACK 13 AUDIO
    TITLE "0:"
    INDEX 01 00:18:21
  TRACK 14 AUDIO
    TITLE "14:cjc034_09976"
    INDEX 01 00:18:56
  TRACK 15 AUDIO
    TITLE "0:"
    INDEX 01 00:20:00
  TRACK 16 AUDIO
    TITLE "15:cjc034_09977"
    INDEX 01 00:20:34
  TRACK 17 AUDIO
    TITLE "0:"
    INDEX 01 00:25:07
  TRACK 18 AUDIO
    TITLE "12:cjc034_09978"
    INDEX 01 00:26:38
  TRACK 19 AUDIO
    TITLE "0:"
    INDEX 01 00:27:67
  TRACK 20 AUDIO
    TITLE "13:cjc034_09979"
    INDEX 01 00:28:27
  TRACK 21 AUDIO
    TITLE "0:"
    INDEX 01 00:30:69
  TRACK 22 AUDIO
    TITLE "14:cjc034_09980"
    INDEX 01 00:31:27
  TRACK 23 AUDIO
    TITLE "0:"
    INDEX 01 00:32:54
  TRACK 24 AUDIO
    TITLE "15:cjc034_09981"
    INDEX 01 00:33:17
  TRACK 25 AUDIO
    TITLE "0:"
    INDEX 01 00:39:15
  TRACK 26 AUDIO
    TITLE "12:cjc034_09982"
    INDEX 01 00:40:50
  TRACK 27 AUDIO
    TITLE "0:"
    INDEX 01 00:41:67
  TRACK 28 AUDIO
    TITLE "13:cjc034_09983"
    INDEX 01 00:42:27
  TRACK 29 AUDIO
    TITLE "0:"
    INDEX 01 00:44:46
  TRACK 30 AUDIO
    TITLE "14:cjc034_09984"
    INDEX 01 00:45:04
  TRACK 31 AUDIO
    TITLE "0:"
    INDEX 01 00:46:21
  TRACK 32 AUDIO
    TITLE "15:cjc034_09985"
    INDEX 01 00:46:54
  TRACK 33 AUDIO
    TITLE "0:"
    INDEX 01 00:51:54
  TRACK 34 AUDIO
    TITLE "12:cjc034_09986"
    INDEX 01 00:53:09
  TRACK 35 AUDIO
    TITLE "0:"
    INDEX 01 00:54:21
  TRACK 36 AUDIO
    TITLE "13:cjc034_09987"
    INDEX 01 00:54:54
  TRACK 37 AUDIO
    TITLE "0:"
    INDEX 01 00:57:07
  TRACK 38 AUDIO
    TITLE "14:cjc034_09988"
    INDEX 01 00:57:41
  TRACK 39 AUDIO
    TITLE "0:"
    INDEX 01 00:58:52
  TRACK 40 AUDIO
    TITLE "15:cjc034_09989"
    INDEX 01 00:59:08
  TRACK 41 AUDIO
    TITLE "0:"
    INDEX 01 01:02:30
  TRACK 42 AUDIO
    TITLE "12:cjc034_09990"
    INDEX 01 01:03:65
  TRACK 43 AUDIO
    TITLE "0:"
    INDEX 01 01:04:72
  TRACK 44 AUDIO
    TITLE "13:cjc034_09991"
    INDEX 01 01:05:28
  TRACK 45 AUDIO
    TITLE "0:"
    INDEX 01 01:07:21
  TRACK 46 AUDIO
    TITLE "14:cjc034_09992"
    INDEX 01 01:07:53
  TRACK 47 AUDIO
    TITLE "0:"
    INDEX 01 01:08:60
  TRACK 48 AUDIO
    TITLE "15:cjc034_09993"
    INDEX 01 01:09:20
  TRACK 49 AUDIO
    TITLE "0:"
    INDEX 01 01:13:00
  TRACK 50 AUDIO
    TITLE "12:cjc034_09994"
    INDEX 01 01:14:31
  TRACK 51 AUDIO
    TITLE "0:"
    INDEX 01 01:15:58
  TRACK 52 AUDIO
    TITLE "13:cjc034_09995"
    INDEX 01 01:16:14
  TRACK 53 AUDIO
    TITLE "0:"
    INDEX 01 01:17:00
  TRACK 54 AUDIO
    TITLE "14:cjc034_09996"
    INDEX 01 01:17:32
  TRACK 55 AUDIO
    TITLE "0:"
    INDEX 01 01:18:60
  TRACK 56 AUDIO
    TITLE "15:cjc034_09997"
    INDEX 01 01:19:17
  TRACK 57 AUDIO
    TITLE "0:"
    INDEX 01 01:25:33
  TRACK 58 AUDIO
    TITLE "12:cjc034_09998"
    INDEX 01 01:26:66
  TRACK 59 AUDIO
    TITLE "0:"
    INDEX 01 01:28:00
  TRACK 60 AUDIO
    TITLE "13:cjc034_09999"
    INDEX 01 01:28:35
  TRACK 61 AUDIO
    TITLE "0:"
    INDEX 01 01:32:35
  TRACK 62 AUDIO
    TITLE "14:cjc034_10000"
    INDEX 01 01:32:66
  TRACK 63 AUDIO
    TITLE "0:"
    INDEX 01 01:34:03
  TRACK 64 AUDIO
    TITLE "15:cjc034_10001"
    INDEX 01 01:34:36
  TRACK 65 AUDIO
    TITLE "0:"
    INDEX 01 01:38:40
